<?xml version="1.0" encoding="utf-8"?>
<!-- Svg Vector Icons : http://www.onlinewebfonts.com/icon -->
<!DOCTYPE svg PUBLIC "-//W3C//DTD SVG 1.1//EN" "http://www.w3.org/Graphics/SVG/1.1/DTD/svg11.dtd">
<svg version="1.1" xmlns="http://www.w3.org/2000/svg" xmlns:xlink="http://www.w3.org/1999/xlink" x="0px" y="0px" viewBox="0 0 1000 1000" enable-background="new 0 0 1000 1000" xml:space="preserve">
<metadata> Svg Vector Icons : http://www.onlinewebfonts.com/icon </metadata>
<g><g transform="translate(0.000000,511.000000) scale(0.100000,-0.100000)"><path d="M4816.7,4980.6c-122.2-38.6-233.6-115.7-332.2-235.7c-45-53.6-132.9-122.2-192.9-154.3c-94.3-49.3-139.3-57.9-282.9-60c-147.9,0-192.9,8.6-321.5,68.6c-188.6,83.6-297.9,102.9-445.7,70.7c-237.9-49.3-400.8-205.7-488.6-467.2c-38.6-113.6-72.9-167.2-169.3-265.7c-150-150-265.7-188.6-548.6-186.4c-233.6,2.1-355.7-40.7-495-177.9c-135-132.9-182.2-263.6-180-497.2c2.1-282.9-36.4-398.6-186.4-548.6c-98.6-96.4-152.2-130.7-265.7-169.3c-261.4-87.9-417.9-250.7-467.2-488.6c-32.1-147.9-12.9-257.2,70.7-445.7c60-128.6,68.6-173.6,68.6-321.5c-2.1-216.4-47.2-312.9-237.9-497.2C125.6,394.5,54.8,175.9,127.7-72.7c30-100.7,66.4-154.3,214.3-312.9c270-289.3,312.9-473.6,180-790.8c-60-143.6-68.6-190.7-68.6-357.9c-2.1-167.1,6.4-210,55.7-317.2c152.1-323.6,593.6-572.2,1026.5-578.6c167.2-2.2,199.3,4.3,310.7,60c246.5,126.4,304.3,293.6,257.2,745.8c-36.4,336.5-19.3,480.1,68.6,604.4c177.9,252.9,475.8,289.3,992.2,120c160.7-51.4,287.2-83.6,310.7-75c126.4,45,139.3,115.7,75,398.6c-62.1,265.7-79.3,767.2-36.4,1018c85.7,492.9,317.2,912.9,713.6,1294.4c353.6,340.7,758.6,555,1210.8,642.9c214.3,42.9,619.3,32.1,816.5-21.4c497.2-130.7,887.2-492.9,1058.7-977.2c55.7-160.7,60-192.9,60-525c0-409.3-32.1-555-190.7-889.4C6749.7-938.5,5766-1523.5,4855.2-1418.5c-197.2,23.6-220.7,23.6-308.6-15c-64.3-30-122.2-79.3-182.2-160.7c-242.2-330-550.8-381.5-1144.4-186.4c-229.3,75-276.5,83.6-323.6,62.1c-72.9-34.3-83.6-79.3-53.6-233.6c12.9-70.7,21.4-203.6,15-297.9c-12.9-210-87.9-360-244.3-480c-184.3-141.5-297.9-171.4-647.2-175.7c-330-2.1-381.5-19.3-452.2-143.6c-70.7-122.1,53.6-330,259.3-432.9c94.3-47.1,141.4-55.7,304.3-55.7c375-2.1,559.3-130.7,683.6-475.8c64.3-180,154.3-293.6,291.5-368.6c205.7-111.4,405-109.3,638.6,2.2c107.2,51.4,150,60,317.2,60c233.6,0,282.9-23.6,492.9-227.2c188.6-182.1,312.9-242.2,503.6-242.2c192.9,0,317.2,60,503.6,244.3c186.4,184.3,293.6,233.6,488.6,235.7c117.9,0,177.9-12.9,295.7-64.3c184.3-81.4,308.6-105,443.6-83.6c225,34.3,413.6,192.9,495.1,417.9c92.1,250.7,167.1,345,349.3,435.1c122.2,62.1,147.9,66.4,360,66.4c212.2,0,237.9,4.3,360,66.4c139.3,68.6,214.3,141.4,287.2,285c38.6,70.7,49.3,139.3,60,357.9c10.7,246.4,17.1,276.4,77.1,385.7c81.4,143.6,195,233.6,398.6,310.7c291.4,111.4,452.2,325.7,452.2,608.6c0,115.7-12.9,171.4-79.3,315c-64.3,145.7-77.1,195-77.1,319.3c2.1,199.3,51.4,304.3,235.7,490.8c182.2,184.3,242.2,310.7,244.3,503.6c2.1,188.6-60,315-242.2,503.6c-203.6,210-227.2,259.3-227.2,492.9c0,167.2,8.6,210,60,315c115.7,240,115.7,430.7,0,642.9c-72.9,135-186.4,225-366.4,289.3c-347.2,126.4-473.6,308.6-475.8,694.3c0,126.4-12.9,242.2-34.3,304.3c-45,135-177.9,278.6-321.4,349.3c-105,51.4-141.5,57.9-319.3,55.7c-117.9-2.1-244.3,10.7-302.1,27.9c-203.6,60-351.5,216.5-428.6,447.9c-96.4,289.3-317.2,452.2-608.6,452.2c-111.4-2.1-171.4-17.1-300-75c-199.3-90-372.9-107.2-535.8-53.6c-81.4,27.9-156.4,81.4-302.2,216.5c-150,141.4-214.3,186.4-302.2,212.2C5061,5019.2,4941,5019.2,4816.7,4980.6z"/></g></g>
</svg>