<?xml version="1.0" encoding="utf-8"?>
<!-- Svg Vector Icons : http://www.onlinewebfonts.com/icon -->
<!DOCTYPE svg PUBLIC "-//W3C//DTD SVG 1.1//EN" "http://www.w3.org/Graphics/SVG/1.1/DTD/svg11.dtd">
<svg version="1.1" xmlns="http://www.w3.org/2000/svg" xmlns:xlink="http://www.w3.org/1999/xlink" x="0px" y="0px" viewBox="0 0 1000 1000" enable-background="new 0 0 1000 1000" xml:space="preserve">
<metadata> Svg Vector Icons : http://www.onlinewebfonts.com/icon </metadata>
<g><g transform="translate(0.000000,511.000000) scale(0.100000,-0.100000)"><path d="M8181.9,5066.4c-610.9-64.2-1402-368.6-1878.3-722.8c-190.5-142.9-428.7-376.9-552.9-546.7c-424.5-575.7-544.6-1110-397.6-1770.6c87-391.4,76.6-478.4-95.3-859.4c-236.1-523.9-246.5-569.5-265.1-1263.3c-12.4-505.3-20.7-586.1-60.1-712.4c-62.1-190.5-182.2-310.6-395.5-399.7c-343.8-142.9-662.7-161.5-1296.4-78.7c-617.1,80.8-894.6,64.2-1172.1-72.5c-341.7-169.8-532.2-416.3-642-832.5c-43.5-161.5-45.6-221.6-49.7-989.9c-2.1-741.4-6.2-832.5-43.5-977.5c-93.2-364.5-256.8-474.2-869.8-586.1c-161.5-29-314.8-60.1-341.7-70.4c-153.2-58,540.5-51.8,822.2,8.3c194.7,41.4,333.4,111.8,449.4,232c242.3,246.4,370.7,604.7,430.7,1186.6c64.2,633.7,107.7,842.9,217.4,1070.7c91.1,186.4,219.5,304.4,379,350c153.3,45.6,248.5,29,652.3-105.6c184.3-62.1,457.7-136.7,604.7-169.8c234-49.7,314.8-55.9,631.6-58c314.8,0,383.1,6.2,523.9,47.6c451.5,130.5,757.9,395.5,977.5,842.9c169.8,347.9,252.7,679.3,321,1269.5c41.4,364.5,76.6,486.7,174,590.2c134.6,145,362.4,174,770.4,95.3c513.6-99.4,1025.1-16.6,1445.5,234c200.9,118,494.9,414.2,654.4,658.6c341.7,523.9,627.5,1250.8,706.2,1799.6c37.3,271.3,14.5,695.8-51.8,919.5c-99.4,335.5-256.8,569.5-459.7,689.6C9078.6,5016.7,8581.6,5107.8,8181.9,5066.4z"/></g></g>
</svg>