<?xml version="1.0" encoding="utf-8"?>
<!-- Svg Vector Icons : http://www.onlinewebfonts.com/icon -->
<!DOCTYPE svg PUBLIC "-//W3C//DTD SVG 1.1//EN" "http://www.w3.org/Graphics/SVG/1.1/DTD/svg11.dtd">
<svg version="1.1" xmlns="http://www.w3.org/2000/svg" xmlns:xlink="http://www.w3.org/1999/xlink" x="0px" y="0px" viewBox="0 0 1000 1000" enable-background="new 0 0 1000 1000" xml:space="preserve">
<metadata> Svg Vector Icons : http://www.onlinewebfonts.com/icon </metadata>
<g><g transform="translate(0.000000,511.000000) scale(0.100000,-0.100000)"><path d="M4769.1,4999.4l-109.6-9.1v-431.5c0-431.5,0-433.8-50.2-442.9c-29.7-6.9-134.7-22.8-235.2-36.5c-303.7-43.4-719.2-164.4-1041.1-305.9c-27.4-11.4-82.2,63.9-248.9,356.2c-116.5,205.5-214.6,376.7-219.2,381.3c-16,18.3-602.7-326.5-602.7-351.6c0-11.4,274-493.2,390.4-687.2l41.1-70.8l-153-111.9c-196.4-143.8-554.8-500-710.1-705.5c-66.2-86.8-130.1-157.5-143.8-153c-11.4,2.3-180.4,98.2-372.2,210.1c-194.1,114.2-358.5,205.5-363,205.5c-27.4,0-372.2-586.8-353.9-602.7c4.6-4.6,164.4-95.9,351.6-203.2c189.5-109.6,356.2-207.8,369.9-216.9c22.8-13.7,11.4-66.2-50.2-216.9c-109.6-269.4-182.7-529.7-228.3-815.1c-20.6-132.4-43.4-262.6-48-290c-9.1-52.5-11.4-52.5-440.7-52.5H122.8l-16-171.2c-9.1-93.6-9.1-248.9,0-342.5l16-171.2h429.2c429.2,0,431.5,0,440.7-50.2c4.6-29.7,27.4-159.8,48-292.2c45.7-285.4,118.7-545.7,228.3-815.1c61.7-150.7,73.1-203.2,50.2-216.9c-13.7-9.1-180.4-107.3-369.9-216.9c-187.2-107.3-347.1-200.9-351.6-203.2c-11.4-9.1,248.9-477.2,306-548l47.9-59.4l340.2,198.6c189.5,109.6,358.5,207.8,379,216.9c27.4,16,61.7-13.7,148.4-132.4c143.8-194.1,500-554.8,705.5-710.1c89-66.2,157.5-130.1,153-143.9c-2.3-11.4-98.2-182.7-214.6-379l-207.8-356.2l59.4-45.7c73.1-59.3,541.1-319.6,550.2-308.2c2.3,4.6,95.9,164.4,203.2,351.6c109.6,189.5,205.5,356.2,216.9,369.9c13.7,20.5,75.3,6.8,246.6-61.7c278.6-109.6,605-196.3,869.9-230.6c111.9-13.7,214.6-29.7,230.6-34.2c20.6-6.9,27.4-114.2,27.4-438.4v-431.5l164.4-13.7c89-6.8,244.3-6.8,342.5,0l178.1,13.7v431.5c0,324.2,6.8,431.5,29.7,438.4c13.7,4.5,116.5,20.5,228.3,34.2c319.6,43.4,673.5,146.1,1080,312.8c13.7,6.9,121-155.3,237.5-360.7c116.4-205.5,214.6-376.7,219.2-381.3c13.7-16,602.8,324.2,602.8,351.6c0,4.6-93.6,169-205.5,365.3c-114.2,194.1-207.8,363-212.3,374.5c-2.3,11.4,68.5,75.3,155.2,141.6c205.5,155.3,538.8,488.6,694.1,694.1c66.2,89.1,130.1,157.5,141.5,155.3c11.4-4.6,180.4-98.2,374.5-212.3c196.3-111.9,360.7-205.5,365.3-205.5c27.4,0,367.6,589.1,351.6,602.8c-4.6,4.6-162.1,95.9-351.6,203.2c-187.2,109.6-356.2,205.5-369.9,216.9c-20.5,13.7-6.8,75.4,61.7,246.6c109.6,278.5,196.3,605,230.6,869.9c13.7,111.9,29.7,214.6,34.2,230.6c6.9,20.6,114.2,27.4,438.4,27.4h431.5l13.7,178.1c6.8,98.2,6.8,253.5,0,342.5l-13.7,164.4h-429.2c-429.3,0-431.5,0-440.7,52.5c-4.6,27.4-27.4,157.5-47.9,290c-45.7,285.4-118.7,545.7-228.3,815.1c-61.7,150.7-73.1,203.2-50.2,216.9c13.7,9.1,182.7,107.3,369.9,216.9c189.5,107.3,347.1,198.6,351.6,203.2c18.3,16-326.5,602.7-353.9,602.7c-4.6,0-169-91.3-363-205.5c-191.8-111.9-360.7-207.8-372.2-210.1c-13.7-4.6-77.6,63.9-143.8,153c-157.5,207.8-493.2,543.4-694.1,694.1c-86.8,66.2-157.5,130.1-155.2,141.6c4.6,11.4,98.2,180.4,212.3,374.4c111.9,196.4,205.5,360.7,205.5,365.3c0,27.4-589.1,367.6-602.8,351.6c-4.5-4.6-95.9-162.1-205.5-351.6c-107.3-187.2-203.2-353.9-214.6-369.9c-11.4-20.5-68.5-6.8-210.1,50.2c-271.7,107.3-564,189.5-833.4,230.6c-125.6,20.5-251.1,41.1-278.6,45.7c-52.5,9.1-52.5,11.4-52.5,440.7v429.2l-153,13.7C5036.2,5015.4,4972.3,5015.4,4769.1,4999.4z M4282.8,2225.4c216.9-45.7,440.7-171.2,614.2-347c271.7-271.7,388.1-552.5,385.9-927c-4.6-840.2-785.4-1459-1600.5-1267.2C3102.4-178.8,2675.4,360,2673.2,953.7c0,182.7,68.5,463.5,153,621c34.2,66.2,139.3,196.4,235.2,292.3C3399.2,2211.7,3796.5,2328.1,4282.8,2225.4z"/></g></g>
</svg>